<svg data-v-0dd9719b="" version="1.0" xmlns="http://www.w3.org/2000/svg" xmlns:xlink="http://www.w3.org/1999/xlink" width="100%" height="100%" viewBox="0 0 340.000000 250.000000" preserveAspectRatio="xMidYMid meet" color-interpolation-filters="sRGB" style="margin: auto;"> <rect data-v-0dd9719b="" x="0" y="0" width="100%" height="100%" fill="#fff" fill-opacity="1" class="background"></rect> <rect data-v-0dd9719b="" x="0" y="0" width="100%" height="100%" fill="url(#watermark)" fill-opacity="1" class="watermarklayer"></rect> <g data-v-0dd9719b="" fill="#333" class="icon-text-wrapper icon-svg-group iconsvg" transform="translate(48.519996643066406,95)"><g class="iconsvg-imagesvg" transform="translate(0,0)"><g><rect fill="#333" fill-opacity="0" stroke-width="2" x="0" y="0" width="60" height="60" class="image-rect"></rect> <svg x="0" y="0" width="60" height="60" filtersec="colorsb6124260345" class="image-svg-svg primary" style="overflow: visible;"><svg xmlns="http://www.w3.org/2000/svg" viewBox="0 0 100 100"><path d="M53.46 98.92c8.29-1.68 14.63-10.08 18.45-19a88.77 88.77 0 0 1-18.45 2.45zM26.75 25.67a81.35 81.35 0 0 0-3.31 20.88h24.19V22.36a81.35 81.35 0 0 0-20.88 3.31zM47.63 0C39.34 1.68 33 10.08 29.17 19a89.64 89.64 0 0 1 18.46-2.45zm-30 46.55a90.24 90.24 0 0 1 2.45-18.46c-8.9 3.82-17.3 10.17-19 18.46zm60 5.82H53.46v24.19a81.65 81.65 0 0 0 20.87-3.3 81.5 81.5 0 0 0 3.31-20.89zM69 95.69A49.92 49.92 0 0 0 96.77 67.9 53.77 53.77 0 0 1 79 77.87a53.77 53.77 0 0 1-10 17.82zM32.11 3.23A49.89 49.89 0 0 0 4.32 31a53.57 53.57 0 0 1 17.82-10 53.57 53.57 0 0 1 9.97-17.77zM100 52.37H83.47A89.46 89.46 0 0 1 81 70.83c8.93-3.83 17.33-10.16 19-18.46z" fill="#3a46d6"></path><path d="M69 31h15.49v15.55H100V31H84.49V15.51H69V0H53.45v15.51H69V31H53.45v15.55H69zM31 69H15.52V53.45H0V69h15.52v15.49H31V100h15.55V84.49H31V69h15.55V53.45H31z" fill="#2ca6f1" fill-rule="evenodd"></path></svg></svg> <!----></g></g> <g transform="translate(67,1.3937492370605469)"><g data-gra="path-name" fill-rule="" class="tp-name iconsvg-namesvg" transform="translate(0,0)"><g transform="scale(1)"><g><path d="M29.71-35.16L29.71-35.16Q33.75-32.7 33.75-32.34L33.75-32.34Q33.57-32.17 33.05-32.17L33.05-32.17Q31.99-31.82 31.11-30.76L31.11-30.76Q30.94-30.59 30.59-30.06L30.59-30.06Q26.89-25.14 25.14-23.03L25.14-23.03 33.22-23.03 35.86-25.84 39.9-22.32 39.73-21.97 8.79-21.97 6.5-21.45 5.45-23.03 24.26-23.03Q28.3-30.06 29.71-35.16ZM10.72-34.1L11.07-34.8Q16.7-31.11 18.46-28.3L18.46-28.3Q18.98-27.07 18.11-25.14L18.11-25.14Q17.05-23.38 16.35-24.43L16.35-24.43Q16.35-24.43 16.17-24.79L16.17-24.79Q14.94-30.06 10.72-34.1L10.72-34.1ZM30.23-11.25L32.52-13.71 36.39-10.55 36.21-10.2 11.25-10.2 8.79-9.84 7.73-11.25 30.23-11.25ZM34.63 2.11L37.62-1.23 42.01 2.64 41.84 2.99 5.98 2.99 3.52 3.52 2.11 2.11 34.63 2.11ZM56.6-36.39L56.6-36.39Q60.12-34.98 61.17-34.45L61.17-34.45Q61.17-34.45 60.64-33.93L60.64-33.93Q59.59-33.22 59.59-33.05L59.59-33.05Q59.77-8.09 56.95-4.04L56.95-4.04Q54.32 0.7 46.76 4.92L46.76 4.92 46.23 4.22Q59.06-1.23 56.6-31.64L56.6-31.64Q56.6-34.8 56.6-36.39ZM80.16-36.04L80.16-36.04Q83.67-34.8 84.55-34.1L84.55-34.1Q84.55-34.1 84.02-33.57L84.02-33.57Q83.14-32.7 83.14-32.52L83.14-32.52 83.67 2.99Q82.79 4.04 80.33 4.39L80.33 4.39Q80.33 1.58 80.33-11.07L80.33-11.07Q80.16-30.06 80.16-36.04ZM68.55-34.98L68.55-34.98Q72.25-33.57 72.77-32.87L72.77-32.87Q72.77-32.87 72.25-32.34L72.25-32.34Q71.37-31.46 71.37-31.29L71.37-31.29 71.37-1.58Q70.84-0.88 68.38-0.18L68.38-0.18Q68.55-9.49 68.55-19.51L68.55-19.51Q68.73-29 68.55-34.98ZM51.33-24.43L51.33-24.43 51.86-24.61Q53.79-17.05 51.68-14.41L51.68-14.41Q50.27-12.66 48.52-13.01L48.52-13.01Q46.76-13.54 47.99-15.29L47.99-15.29Q48.16-15.47 48.34-15.64L48.34-15.64Q51.15-18.28 51.33-24.43ZM60.64-23.73L61.35-24.08Q65.74-19.51 65.92-18.28L65.92-18.28Q65.74-14.41 63.28-14.59L63.28-14.59Q62.75-14.77 62.75-16.35L62.75-16.35Q62.75-20.39 60.64-23.73L60.64-23.73ZM72.77-23.73L73.3-24.26Q77.34-20.21 78.05-18.11L78.05-18.11Q77.52-14.77 75.41-14.77L75.41-14.77Q75.23-14.94 75.06-16.17L75.06-16.17Q74.71-20.39 72.77-23.73L72.77-23.73ZM110.39-36.74L110.39-36.74Q114.79-34.98 114.79-34.63L114.79-34.63Q114.79-34.45 114.08-34.1L114.08-34.1Q113.2-33.57 112.85-33.05L112.85-33.05Q112.68-32.7 112.15-31.82L112.15-31.82Q111.45-30.41 110.74-29.36L110.74-29.36 125.86-29.36 128.32-32.34 132.36-28.48 132.36-28.3 110.21-28.3Q108.63-24.96 106-21.09L106-21.09 120.06-21.09Q120.23-21.09 121.29-22.5L121.29-22.5Q121.99-23.38 121.99-23.38L121.99-23.38Q123.05-23.03 125.68-20.57L125.68-20.57Q125.68-20.39 125.16-20.04L125.16-20.04Q124.1-19.34 124.1-18.81L124.1-18.81Q124.1-13.01 124.45 1.05L124.45 1.05Q124.45 1.93 124.45 1.93L124.45 1.93Q124.1 4.39 119.88 5.1L119.88 5.1Q119.71 5.1 119.71 4.75L119.71 4.75Q119.71 2.11 114.26 1.23L114.26 1.23 114.43 0.7Q119.88 1.23 120.41 1.23L120.41 1.23Q121.46 1.23 121.29 0.35L121.29 0.35 121.29-6.68 106.17-6.68 106.17 3.16Q105.47 4.39 103.01 4.57L103.01 4.57 103.54-17.93Q99.32-12.48 91.41-7.38L91.41-7.38 90.88-7.91Q101.43-16.52 107.05-28.3L107.05-28.3 94.57-28.3 92.11-27.77 91.23-29.36 107.58-29.36Q108.98-32.34 110.39-36.74ZM121.29-20.04L107.93-20.04Q105.82-20.39 106.17-18.81L106.17-18.81 106.17-14.24 121.29-14.24 121.29-20.04ZM121.29-7.56L121.29-13.18 106.17-13.18 106.17-7.56 121.29-7.56ZM167.7-36.04L167.7-36.04Q169.98-34.63 171.21-33.4L171.21-33.4Q171.21-33.4 170.51-32.7L170.51-32.7Q169.45-31.82 169.45-31.64L169.45-31.64 169.63-23.91Q168.93-23.2 166.64-22.85L166.64-22.85 166.64-24.61 147.66-24.61 147.66-23.2Q147.13-22.85 145.2-22.32L145.2-22.32Q144.84-22.15 144.84-22.15L144.84-22.15 144.84-35.86 148.54-34.28 166.11-34.28Q166.29-34.28 166.99-35.16L166.99-35.16Q167.52-36.04 167.7-36.04ZM166.64-29.88L166.64-33.4 148.89-33.4Q147.83-33.4 147.66-31.64L147.66-31.64 147.66-29.88 166.64-29.88ZM166.64-25.31L166.64-29.18 147.66-29.18 147.66-25.31 166.64-25.31ZM171.74-21.27L174.2-24.08 178.07-20.74 177.89-20.21 139.04-20.21 136.93-19.86 135.88-21.27 171.74-21.27ZM167.87-18.63L167.87-18.63Q169.1-18.11 171.21-16.35L171.21-16.35Q171.21-16.17 170.51-15.47L170.51-15.47Q169.63-14.77 169.63-14.41L169.63-14.41 169.8-5.98Q168.57-5.27 166.99-4.92L166.99-4.92 166.99-6.68 158.38-6.68 158.38-2.29 167.87-2.29 169.8-4.39 172.97-1.41 172.97-1.23 158.38-1.23 158.38 2.99 170.86 2.99 172.97 0.53 177.01 3.69 177.01 4.04 140.1 4.04 138.34 4.39 137.29 2.99 155.57 2.99 155.57-1.23 143.61-1.23 141.33-0.88 140.27-2.29 155.57-2.29 155.57-6.68 146.78-6.68 146.78-5.27Q145.72-4.39 143.96-4.04L143.96-4.04 144.14-18.63 147.3-17.05 166.46-17.05Q166.64-17.05 167.17-17.93L167.17-17.93Q167.7-18.63 167.87-18.63ZM155.57-12.3L155.57-16.17 147.66-16.17Q146.78-16.35 146.78-14.59L146.78-14.59 146.78-12.3 155.57-12.3ZM166.99-12.3L166.99-16.17 158.38-16.17 158.38-12.3 166.99-12.3ZM155.57-7.56L155.57-11.6 146.78-11.6 146.78-7.56 155.57-7.56ZM166.99-7.56L166.99-11.6 158.38-11.6 158.38-7.56 166.99-7.56Z" transform="translate(-2.109999895095825, 36.7400016784668)"></path></g> <!----> <!----> <!----> <!----> <!----> <!----> <!----></g></g> <g data-gra="path-slogan" fill-rule="" class="tp-slogan iconsvg-slogansvg" fill="#333" transform="translate(14.150001525878906,47.84000015258789)"><!----> <!----> <g transform="scale(1, 1)"><g transform="scale(1)"><path d="M0.89-8.58L2.06-8.58L2.06-1.03L6.42-1.03L6.42 0L0.89 0L0.89-8.58ZM13.22 0L12.38-2.48L8.91-2.48L8.02 0L6.84 0L10.08-8.58L11.39-8.58L14.48 0L13.22 0ZM10.64-7.31L9.28-3.52L11.95-3.52L10.69-7.31L10.64-7.31ZM16.92-8.58L21.23-1.64L21.23-8.58L22.36-8.58L22.36 0L21.05 0L16.69-6.94L16.64-6.94L16.64 0L15.52 0L15.52-8.58L16.92-8.58ZM24.98-1.03L30.28-1.03L30.28 0L23.53 0L23.53-0.94L28.78-7.59L23.91-7.59L23.91-8.58L30.28-8.58L30.28-7.59L24.98-1.03ZM32.58-5.06L37.08-5.06L37.08-8.58L38.25-8.58L38.25 0L37.08 0L37.08-3.98L32.58-3.98L32.58 0L31.41 0L31.41-8.58L32.58-8.58L32.58-5.06ZM46.83-4.27L46.83-4.27Q46.64-7.64 43.83-7.83L43.83-7.83Q40.97-7.69 40.83-4.27L40.83-4.27Q40.97-0.94 43.83-0.80L43.83-0.80Q46.64-0.98 46.83-4.27ZM48-4.27L48-4.27Q47.72 0 43.83 0.14L43.83 0.14Q39.89 0 39.61-4.27L39.61-4.27Q39.84-8.72 43.83-8.81L43.83-8.81Q47.72-8.67 48-4.27ZM55.03-3.19L55.03-8.58L56.20-8.58L56.20-3.05Q56.06 0.05 52.69 0.14L52.69 0.14Q49.55 0.05 49.41-2.86L49.41-2.86L49.41-8.58L50.58-8.58L50.58-3.19Q50.63-0.84 52.73-0.80L52.73-0.80Q55.03-0.84 55.03-3.19L55.03-3.19ZM62.48-5.06L66.98-5.06L66.98-8.58L68.16-8.58L68.16 0L66.98 0L66.98-3.98L62.48-3.98L62.48 0L61.31 0L61.31-8.58L62.48-8.58L62.48-5.06ZM75.61 0L74.77-2.48L71.30-2.48L70.41 0L69.23 0L72.47-8.58L73.78-8.58L76.88 0L75.61 0ZM73.03-7.31L71.67-3.52L74.34-3.52L73.08-7.31L73.03-7.31ZM84.19-6.09L84.19-6.09L83.11-6.09Q83.02-7.73 80.95-7.83L80.95-7.83Q79.03-7.78 79.03-6.33L79.03-6.33Q79.03-5.39 80.06-5.25L80.06-5.25L82.50-4.69Q84.42-4.22 84.42-2.34L84.42-2.34Q84.38 0.05 81.05 0.14L81.05 0.14Q79.22 0.14 78.47-0.61L78.47-0.61Q77.53-1.31 77.58-2.77L77.58-2.77L78.70-2.77Q78.75-0.80 81.05-0.75L81.05-0.75Q83.30-0.80 83.34-2.20L83.34-2.20Q83.53-3.38 81.47-3.75L81.47-3.75L79.69-4.13Q77.86-4.64 77.86-6.19L77.86-6.19Q78-8.72 80.86-8.81L80.86-8.81Q84.09-8.81 84.19-6.09ZM94.22-1.08L93.33-1.78L93.94-2.48L95.02-1.64Q96-2.63 96-4.27L96-4.27Q95.81-7.64 93-7.83L93-7.83Q90.14-7.69 90-4.27L90-4.27Q90.14-0.94 93-0.80L93-0.80Q93.70-0.80 94.22-1.08L94.22-1.08ZM95.95-0.94L97.08-0.05L96.52 0.56L95.20-0.33Q94.36 0.14 93 0.14L93 0.14Q89.06 0 88.78-4.27L88.78-4.27Q89.02-8.72 93-8.81L93-8.81Q96.89-8.67 97.17-4.27L97.17-4.27Q97.13-2.20 95.95-0.94L95.95-0.94ZM104.20-3.19L104.20-8.58L105.38-8.58L105.38-3.05Q105.23 0.05 101.86 0.14L101.86 0.14Q98.72 0.05 98.58-2.86L98.58-2.86L98.58-8.58L99.75-8.58L99.75-3.19Q99.80-0.84 101.91-0.80L101.91-0.80Q104.20-0.84 104.20-3.19L104.20-3.19ZM112.83 0L111.98-2.48L108.52-2.48L107.63 0L106.45 0L109.69-8.58L111-8.58L114.09 0L112.83 0ZM110.25-7.31L108.89-3.52L111.56-3.52L110.30-7.31L110.25-7.31ZM116.53-8.58L120.84-1.64L120.84-8.58L121.97-8.58L121.97 0L120.66 0L116.30-6.94L116.25-6.94L116.25 0L115.13 0L115.13-8.58L116.53-8.58ZM125.95-7.59L123.05-7.59L123.05-8.58L129.98-8.58L129.98-7.59L127.08-7.59L127.08 0L125.95 0L125.95-7.59ZM131.20-8.58L132.38-8.58L132.38 0L131.20 0L131.20-8.58ZM136.55-7.59L133.64-7.59L133.64-8.58L140.58-8.58L140.58-7.59L137.67-7.59L137.67 0L136.55 0L136.55-7.59ZM148.55-8.58L145.31-3.47L145.31 0L144.14 0L144.14-3.47L140.91-8.58L142.27-8.58L144.70-4.45L147.19-8.58L148.55-8.58Z" transform="translate(-0.890625, 8.8125)"></path></g></g></g></g></g><defs v-gra="od"></defs></svg>